<?xml version="1.0" encoding="utf-8"?>
<!-- Uploaded to: SVG Repo, www.svgrepo.com, Generator: SVG Repo Mixer Tools -->
<svg fill="#000000" width="800px" height="800px" viewBox="0 0 32 32" version="1.1" xmlns="http://www.w3.org/2000/svg">
<title>battery-2</title>
<path d="M0 25.024q0 0.8 0.576 1.408t1.44 0.576h25.984q0.832 0 1.408-0.576t0.608-1.408v-4q0.8 0 1.408-0.608t0.576-1.408v-5.984q0-0.832-0.576-1.44t-1.408-0.576v-4q0-0.832-0.608-1.408t-1.408-0.576h-25.984q-0.832 0-1.44 0.576t-0.576 1.408v18.016zM4 21.024v-10.016q0-0.832 0.576-1.408t1.44-0.576h17.984q0.832 0 1.408 0.576t0.608 1.408v10.016q0 0.8-0.608 1.408t-1.408 0.576h-17.984q-0.832 0-1.44-0.576t-0.576-1.408zM6.016 20q0 0.416 0.288 0.704t0.704 0.32 0.704-0.32 0.288-0.704v-8q0-0.384-0.288-0.704t-0.704-0.288-0.704 0.288-0.288 0.704v8zM10.016 20q0 0.416 0.288 0.704t0.704 0.32 0.704-0.32 0.288-0.704v-8q0-0.384-0.288-0.704t-0.704-0.288-0.704 0.288-0.288 0.704v8z"></path>
</svg>