<svg xmlns="http://www.w3.org/2000/svg"  viewBox="0 0 48 48" width="48px" height="48px"><path fill="#d6e5e5" d="M10.11,42.902c4.804,0,4.386,0.214,9.82,0.185c0.871-0.005,5.613-0.224,6.479-0.128	c2.132,0.238,4.285,0.097,6.425-0.044c2.925-0.193,6.31,0.945,8.712-1.458c1.478-1.478,1.096-5.155,1.2-7.242	c0.104-2.087,0.237-3.755,0.011-5.832c-0.587-5.386-0.258-10.824-0.038-16.238c0.08-1.975,0.339-4.697-0.899-6.239	c-1.191-1.484-2.883-1.922-5.347-1.7c-4.256,0.383-8.517-0.653-12.791-0.675c-1.633-0.008-3.266-0.017-4.899-0.025	c-1.317-0.007-2.622,0.198-3.939,0.219c-1.225,0.02-5.882,0.157-7.137,0.259C6.453,4.087,5.069,5.05,4.518,6.181	C4.283,6.664,4.215,7.207,4.091,7.729c-0.233,0.98,0.203,7.274,0.254,7.787c0.48,4.804,0,4.804,0,9.609c0,1.334,0.027,5.393,0,6.726	c-0.069,3.375-0.177,5.185,0,6.246C4.825,40.98,7.227,42.902,10.11,42.902"/><path fill="#010101" d="M19.426,44.195c-2.243,0-3.357-0.048-4.439-0.094c-1.079-0.046-2.194-0.094-4.443-0.094	c-3.173,0-5.746-2.147-6.259-5.223c-0.145-0.865-0.111-2.143-0.057-4.26c0.017-0.617,0.034-1.307,0.05-2.078	c0.02-0.958,0.011-3.326,0.005-5.073L4.277,25.73c0-1.851,0.069-2.976,0.131-3.969c0.096-1.545,0.165-2.661-0.128-5.59	c-0.007-0.064-0.514-6.81-0.243-7.952c0.03-0.127,0.057-0.255,0.083-0.384C4.208,7.417,4.298,6.985,4.5,6.569	c0.633-1.297,2.18-2.361,3.6-2.477c1.286-0.104,6.015-0.242,7.17-0.261c0.602-0.01,1.2-0.059,1.799-0.107	c0.7-0.057,1.413-0.118,2.151-0.112l4.898,0.025c1.808,0.009,3.63,0.199,5.392,0.383c2.42,0.252,4.92,0.513,7.352,0.294	c2.757-0.249,4.535,0.333,5.781,1.885c1.244,1.55,1.127,4.029,1.033,6.021l-0.098,2.274c-0.202,4.75-0.412,9.662,0.108,14.439	c0.203,1.867,0.123,3.4,0.029,5.175l-0.038,0.736c-0.021,0.426-0.021,0.918-0.021,1.446c-0.003,2.142-0.006,4.808-1.323,6.125	c-1.907,1.906-4.309,1.772-6.631,1.643c-0.842-0.045-1.637-0.091-2.402-0.04c-2.131,0.141-4.332,0.285-6.514,0.042	c-0.561-0.064-3.065,0.023-4.725,0.081c-0.783,0.027-1.426,0.049-1.696,0.05C20.031,44.195,19.719,44.195,19.426,44.195z M19.153,4.613c-0.664,0-1.345,0.055-2.004,0.108c-0.62,0.05-1.241,0.101-1.864,0.11C14.139,4.85,9.448,4.986,8.182,5.089	c-1.079,0.087-2.301,0.93-2.782,1.917C5.252,7.311,5.178,7.665,5.1,8.04C5.071,8.177,5.042,8.314,5.01,8.451	c-0.201,0.848,0.191,6.881,0.266,7.622c0.301,3.009,0.229,4.159,0.131,5.751c-0.061,0.978-0.129,2.087-0.129,3.907l0.005,1.64	c0.006,1.756,0.015,4.135-0.005,5.097c-0.016,0.773-0.034,1.464-0.05,2.083c-0.054,2.058-0.085,3.299,0.043,4.07	c0.431,2.583,2.599,4.387,5.272,4.387c2.271,0,3.396,0.048,4.486,0.095c1.212,0.052,2.47,0.105,5.33,0.091	c0.267-0.001,0.897-0.023,1.668-0.05c2.317-0.08,4.282-0.142,4.87-0.075c2.092,0.234,4.249,0.092,6.336-0.046	c0.828-0.054,1.69-0.006,2.524,0.04c2.2,0.124,4.278,0.238,5.868-1.352c1.024-1.025,1.027-3.462,1.03-5.42	c0-0.544,0.001-1.054,0.023-1.494l0.038-0.739c0.091-1.731,0.17-3.227-0.025-5.014c-0.528-4.853-0.317-9.803-0.113-14.591	l0.098-2.279c0.086-1.823,0.193-4.093-0.813-5.348c-1.027-1.28-2.497-1.734-4.912-1.515c-2.529,0.226-5.077-0.039-7.545-0.295	c-1.738-0.182-3.535-0.369-5.294-0.378l-4.898-0.025C19.194,4.613,19.174,4.613,19.153,4.613z"/><path fill="#4b7bb2" d="M26.564,14.479c2.63-0.089,4.996-0.049,7.457-0.178c0.921-0.048,2.384,0.118,2.973,0.677	c0.727,0.691,0.929,1.717,1.184,2.687c0.522,1.988,0.597,4.062,0.669,6.116c0.081,2.327,0.163,4.654,0.244,6.981	c0.034,0.976-0.002,2.731-0.485,3.579c-0.691,1.213-2.135,0.958-3.514,1.177c-4.992,0.793-8.897-0.097-13.936,0.291	c-0.813,0.063-2.828-0.048-3.642,0.004c-2.238,0.142-5.003,0.424-7.163-0.178c-0.174-0.048-0.352-0.102-0.493-0.214	c-0.217-0.174-0.31-0.458-0.37-0.73c-0.42-1.893,0.225-3.295-0.084-5.21c-0.123-0.765-0.19-2.166-0.207-2.94	c-0.015-0.689-0.172-2.127-0.183-2.816c-0.009-0.589,0.131-2.552,0-3.126c-0.475-2.085-0.349-2.542-0.259-4.678	c0.048-1.135,0.243-2.395,1.138-3.095c1.055-0.826,2.559-0.506,3.896-0.598c1.425-0.098,3.022-0.67,4.17,0.181	c0.736,0.546,1.058,1.563,1.87,1.988c0.527,0.276,1.155,0.244,1.748,0.206C22.947,14.514,25.192,14.567,26.564,14.479"/><path fill="#010101" d="M13.649,36.506c-1.192,0-2.372-0.093-3.435-0.389c-0.177-0.049-0.443-0.124-0.67-0.306	C9.2,35.536,9.072,35.126,8.999,34.8c-0.238-1.072-0.159-1.99-0.083-2.878c0.067-0.779,0.13-1.515-0.006-2.361	c-0.136-0.836-0.199-2.333-0.214-3.009c-0.007-0.327-0.048-0.827-0.088-1.332c-0.045-0.56-0.089-1.125-0.095-1.487	c-0.003-0.188,0.009-0.51,0.022-0.884c0.024-0.676,0.066-1.806-0.01-2.14c-0.419-1.841-0.386-2.504-0.312-3.958l0.04-0.853	c0.05-1.169,0.245-2.619,1.329-3.468c0.914-0.715,2.04-0.705,3.126-0.689c0.35,0.004,0.703,0.009,1.044-0.015	c0.342-0.023,0.693-0.076,1.046-0.127c1.139-0.167,2.429-0.356,3.456,0.407c0.395,0.292,0.669,0.671,0.934,1.038	c0.272,0.375,0.529,0.73,0.871,0.909c0.388,0.204,0.879,0.188,1.483,0.15c0.698-0.045,1.623-0.054,2.518-0.062	c0.884-0.009,1.798-0.018,2.471-0.062l0.016,0c1.133-0.039,2.217-0.053,3.281-0.067c1.426-0.02,2.772-0.038,4.166-0.11	c0.877-0.044,2.567,0.075,3.344,0.814c0.76,0.722,1.009,1.695,1.25,2.637l0.073,0.286c0.538,2.047,0.613,4.171,0.686,6.226	l0.244,6.981c0.028,0.815,0.032,2.822-0.551,3.844c-0.658,1.154-1.861,1.246-2.923,1.326c-0.312,0.023-0.632,0.047-0.947,0.097	c-2.873,0.458-5.332,0.368-7.936,0.272c-1.908-0.069-3.881-0.142-6.041,0.024c-0.445,0.035-1.207,0.02-1.947,0.006	c-0.654-0.012-1.33-0.026-1.702-0.002l-0.746,0.05C15.787,36.432,14.713,36.506,13.649,36.506z M12.273,12.739	c-0.796,0-1.531,0.055-2.073,0.479c-0.763,0.597-0.906,1.769-0.946,2.723l-0.041,0.862c-0.073,1.44-0.1,1.979,0.288,3.685	c0.098,0.427,0.074,1.3,0.034,2.398c-0.013,0.352-0.024,0.655-0.021,0.832c0.005,0.346,0.049,0.887,0.092,1.422	c0.042,0.527,0.083,1.048,0.091,1.39c0.016,0.757,0.083,2.146,0.2,2.871c0.156,0.969,0.085,1.801,0.016,2.606	c-0.072,0.851-0.142,1.654,0.063,2.576c0.034,0.153,0.091,0.366,0.193,0.448c0.068,0.054,0.211,0.094,0.315,0.124	c1.843,0.514,4.183,0.354,6.245,0.211l0.751-0.05c0.413-0.026,1.079-0.014,1.785,0c0.715,0.013,1.451,0.027,1.852-0.003	c2.213-0.171,4.217-0.097,6.154-0.026c2.552,0.092,4.963,0.181,7.742-0.26c0.343-0.055,0.688-0.082,1.027-0.107	c1.076-0.082,1.755-0.166,2.13-0.824c0.373-0.653,0.461-2.14,0.42-3.314l-0.244-6.981c-0.07-2-0.143-4.067-0.652-6.007L37.619,17.5	c-0.216-0.841-0.419-1.636-0.971-2.159c-0.416-0.396-1.685-0.585-2.602-0.541c-1.414,0.074-2.771,0.092-4.206,0.111	c-1.055,0.014-2.13,0.029-3.253,0.067c-0.699,0.045-1.624,0.054-2.518,0.062c-0.881,0.009-1.792,0.018-2.463,0.061	c-0.6,0.039-1.344,0.087-2.013-0.262c-0.549-0.288-0.903-0.777-1.216-1.208c-0.231-0.319-0.449-0.621-0.72-0.821	c-0.697-0.517-1.678-0.373-2.715-0.22c-0.379,0.056-0.756,0.111-1.123,0.136c-0.366,0.024-0.745,0.02-1.124,0.017	C12.555,12.74,12.413,12.739,12.273,12.739z"/><path fill="#d6e5e5" d="M11.187,20.183c0-1.016,0.553-2.115,1.747-2.549c0.708-0.257,2.461-0.273,3.214-0.264	c1.433,0.019,2.865,0.038,4.298,0.057c0.238,0.003,3.47-0.071,3.723-0.061c3.374,0.137,2.909-0.068,5.113-0.009	c0.706,0.019,3.667-0.086,4.37-0.024c1.914,0.166,2.389,1.499,2.62,2.165L11.187,20.183z"/><path fill="#010101" d="M9.013,21.099c-0.243,0-0.456-0.178-0.493-0.426c-0.041-0.273,0.146-0.528,0.42-0.569	c3.588-0.537,5.785-0.494,8.568-0.44c1.295,0.025,2.759,0.055,4.555,0.025c0.423-0.007,1.215-0.055,2.038-0.105	c0.994-0.06,2.021-0.122,2.55-0.122c0.073,0.002,0.146,0,0.22,0c0.9,0,1.767-0.013,2.562-0.025c1.386-0.021,2.581-0.039,3.368,0.022	c1.47,0.116,2.202,0.019,3.053-0.093c0.66-0.086,1.409-0.184,2.582-0.184c0.276,0,0.5,0.224,0.5,0.5s-0.224,0.5-0.5,0.5	c-1.107,0-1.791,0.089-2.452,0.176c-0.868,0.113-1.691,0.22-3.261,0.098c-0.741-0.058-1.915-0.04-3.274-0.02	c-0.862,0.014-1.811,0.031-2.786,0.025c-0.004,0-0.009,0-0.013,0c-0.497,0-1.509,0.061-2.488,0.121	c-0.841,0.051-1.65,0.1-2.083,0.106c-1.811,0.028-3.289,0-4.59-0.025c-2.732-0.052-4.894-0.096-8.4,0.429	C9.062,21.097,9.038,21.099,9.013,21.099z"/><path fill="#010101" d="M11.188,20.683c-0.276,0-0.5-0.224-0.5-0.5c0-1.376,0.814-2.561,2.075-3.02	c0.813-0.295,2.642-0.306,3.392-0.293l4.298,0.057c0.09,0.002,0.689-0.01,1.376-0.024c1.328-0.026,2.211-0.042,2.361-0.036	c1.911,0.078,2.564,0.045,3.196,0.013c0.487-0.025,0.948-0.047,1.909-0.022c0.274,0.008,0.903-0.005,1.604-0.018	c1.154-0.021,2.348-0.043,2.796-0.005c2.25,0.196,2.811,1.81,3.05,2.5c0.09,0.261-0.048,0.546-0.309,0.636	c-0.261,0.091-0.545-0.047-0.637-0.308c-0.22-0.633-0.587-1.692-2.19-1.832c-0.4-0.035-1.671-0.011-2.69,0.009	c-0.72,0.013-1.365,0.024-1.65,0.018c-0.916-0.025-1.362-0.002-1.831,0.021c-0.655,0.033-1.33,0.068-3.289-0.013	c-0.143-0.004-1.438,0.02-2.3,0.037c-0.7,0.014-1.3,0.034-1.408,0.024l-4.299-0.057c-1.062-0.014-2.497,0.037-3.036,0.233	c-1.046,0.38-1.417,1.358-1.417,2.08C11.688,20.459,11.464,20.683,11.188,20.683z"/></svg>