<?xml version="1.0" encoding="utf-8"?>
<!-- Uploaded to: SVG Repo, www.svgrepo.com, Generator: SVG Repo Mixer Tools -->
<svg width="800px" height="800px" viewBox="0 0 24 24" fill="none" xmlns="http://www.w3.org/2000/svg">
<g id="style=fill">
<g id="wifi-threewave">
<path id="Subtract" fill-rule="evenodd" clip-rule="evenodd" d="M1.25 7.25C1.25 3.93629 3.93629 1.25 7.25 1.25H16.75C20.0637 1.25 22.75 3.93629 22.75 7.25V16.75C22.75 20.0637 20.0637 22.75 16.75 22.75H7.25C3.93629 22.75 1.25 20.0637 1.25 16.75V7.25ZM16.5121 12.4867C13.7721 10.3711 10.2357 10.3711 7.49574 12.4867C7.16788 12.7398 6.69688 12.6792 6.44374 12.3514C6.1906 12.0235 6.25118 11.5525 6.57904 11.2994C9.85906 8.7669 14.1488 8.7669 17.4288 11.2994C17.7567 11.5525 17.8172 12.0235 17.5641 12.3514C17.3109 12.6792 16.84 12.7398 16.5121 12.4867ZM5.45845 10.0506C9.43044 6.98313 14.5697 6.98313 18.5417 10.0506C18.8695 10.3038 19.3405 10.2433 19.5937 9.91543C19.8469 9.5876 19.7864 9.1166 19.4585 8.86342C14.9465 5.37886 9.05368 5.37886 4.54162 8.86342C4.21379 9.1166 4.15327 9.5876 4.40644 9.91543C4.65962 10.2433 5.13062 10.3038 5.45845 10.0506ZM15.1808 15.041C13.2462 13.5425 10.747 13.5425 8.81234 15.041C8.48488 15.2947 8.01379 15.2349 7.76014 14.9074C7.50648 14.5799 7.56632 14.1088 7.89378 13.8552C10.3692 11.9378 13.624 11.9378 16.0994 13.8552C16.4268 14.1088 16.4867 14.5799 16.233 14.9074C15.9794 15.2349 15.5083 15.2947 15.1808 15.041ZM12 16C11.1716 16 10.5 16.6716 10.5 17.5C10.5 18.3284 11.1716 19 12 19H12.0075C12.8359 19 13.5075 18.3284 13.5075 17.5C13.5075 16.6716 12.8359 16 12.0075 16H12Z" fill="#000000"/>
</g>
</g>
</svg>